<?xml version="1.0" encoding="UTF-8" standalone="no"?>
<!-- Created with Inkscape (http://www.inkscape.org/) -->

<svg
   version="1.1"
   id="svg1"
   width="128"
   height="128"
   viewBox="0 0 128 128"
   xmlns="http://www.w3.org/2000/svg"
   xmlns:svg="http://www.w3.org/2000/svg">
  <defs
     id="defs1" />
  <g
     id="g1"
     style="stroke:#000000;stroke-opacity:1;fill:#060303;fill-opacity:1">
    <path
       style="fill:none;stroke:none"
       d="m 96,91 c -8.718491,9.95219 -14.85199,17.63492 -20,30 l 15,-8 2,5 c 4.326393,-7.61108 7.36576,-18.7883 3,-27 z"
       id="path6" />
    <path
       style="fill:none;stroke:none"
       d="m 33,91 c -2.554682,13.80993 5.658562,27.2346 20,30 C 47.010544,109.29243 42.77813,100.25545 33,91"
       id="path5" />
    <path
       style="fill:none;stroke:none"
       d="m 29,90 -8,10 7,3 1,-13"
       id="path4" />
    <path
       style="fill:none;stroke:none"
       d="M 75,57 73,79 C 63.061161,76.637054 54.73056,65.460358 52,56 34.996399,64.839684 46.698734,93.294693 64,93.866516 83.394714,94.507523 93.342644,65.626183 75,57"
       id="path3" />
    <path
       style="fill:none;stroke:none;fill-rule:nonzero;fill-opacity:1"
       d="m 16,72 5,-4 C 23.197748,78.138268 15.861529,84.557571 12,93 33.199829,92.810471 26.123667,78.238319 25,64 h 2 c 1.129187,12.933533 8.164856,27.860352 20,34 L 40.078705,72 48.15741,50 52,27 h 1 c 0,16.731026 -0.351585,37.973724 17,47 -1.20269,-9.524727 0.562935,-17.090195 4,-26 4.554916,5.213837 11.071091,10.542686 13.771606,17 C 92.225731,75.650452 85.366562,88.109909 82,98 93.304276,92.135742 100.91164,77.465988 102,65 h 2 c -1.85068,14.630966 -9.640976,30.673935 13,28 -4.38539,-9.462158 -9.76938,-14.826874 -10,-26 l 6,5 C 121.65145,35.661522 83.64064,-4.4853363 47,10.475304 31.672108,16.733795 22.242735,31.747986 17.72068,47 15.334582,55.047844 14.037097,63.755257 16,72"
       id="path2" />
  </g>
</svg>
