<?xml version="1.0" encoding="UTF-8" standalone="no"?>
<!-- Created with Inkscape (http://www.inkscape.org/) -->

<svg
   version="1.1"
   id="svg1"
   width="128"
   height="128"
   viewBox="0 0 128 128"
   xmlns="http://www.w3.org/2000/svg"
   xmlns:svg="http://www.w3.org/2000/svg">
  <defs
     id="defs1" />
  <g
     id="g1">
    <path
       style="fill:none;stroke:none"
       d="m 23,31 c 0,-2.833333 0.222222,-3 4,-3 3.777778,0 4,0.166667 4,3 0,2.833333 -0.222222,3 -4,3 -3.777778,0 -4,-0.166667 -4,-3 z"
       id="path7" />
    <path
       style="fill:none;stroke:none"
       d="m 23,53 c 0,-2.833333 0.222222,-3 4,-3 3.777778,0 4,0.166667 4,3 0,2.833333 -0.222222,3 -4,3 -3.777778,0 -4,-0.166667 -4,-3 z"
       id="path6" />
    <path
       style="fill:none;stroke:none"
       d="m 23,75 c 0,-2.833333 0.222222,-3 4,-3 3.777778,0 4,0.166667 4,3 0,2.833333 -0.222222,3 -4,3 -3.777778,0 -4,-0.166667 -4,-3 z"
       id="path5" />
    <path
       style="fill:none;stroke:none"
       d="m 81,81 c 0,-8.333333 0.148148,-9 2,-9 1.809524,0 2,0.666667 2,7 v 7 h 5.606989 c 4.701998,0 5.509018,0.255307 5,1.581787 C 95.273145,88.451771 95,89.351771 95,89.581787 95,89.811804 91.85,90 88,90 h -7 z"
       id="path4" />
    <path
       style="fill:none;stroke:none"
       d="m 23,97 c 0,-2.833333 0.222222,-3 4,-3 3.777778,0 4,0.166667 4,3 0,2.833333 -0.222222,3 -4,3 -3.777778,0 -4,-0.166667 -4,-3 z"
       id="path3" />
    <path
       style="fill:none;stroke:none"
       d="M 27.666667,111.33333 C 27.3,110.96667 27,109.19383 27,107.3937 c 0,-3.06026 0.243717,-3.29314 3.75,-3.58333 L 34.5,103.5 V 97 90.5 L 30.75,90.189635 C 27.114455,89.888742 27,89.760869 27,86 c 0,-3.760869 0.114455,-3.888742 3.75,-4.189635 L 34.5,81.5 V 75 68.5 L 30.75,68.189635 C 27.114455,67.888742 27,67.760869 27,64 c 0,-3.760869 0.114455,-3.888742 3.75,-4.189635 L 34.5,59.5 V 53 46.5 L 30.75,46.189635 C 27.114455,45.888742 27,45.760869 27,42 c 0,-3.760869 0.114455,-3.888742 3.75,-4.189635 L 34.5,37.5 V 31 24.5 l -3.806565,-0.313737 c -3.728268,-0.307285 -3.80026,-0.389562 -3.5,-4 L 27.5,16.5 H 64 100.5 l 0.27085,20.296344 c 0.26818,20.095881 0.2509,20.285662 -1.749997,19.214816 C 97.111473,54.989291 97,53.96625 97,37.464816 V 20 H 93 89 V 36 52 H 84.605335 C 72.164681,52 59.749535,59.700793 54.300364,70.797387 51.900112,75.685219 51.5,77.714468 51.5,85 c 0,7.09451 0.432031,9.409435 2.612801,14 1.43704,3.025 4.32454,7.1875 6.416666,9.25 l 3.803866,3.75 h -18 c -9.9,0 -18.3,-0.3 -18.666666,-0.66667 z"
       id="path2" />
    <path
       style="fill:none;stroke:none"
       d="m 74.860254,112.43224 c -6.377925,-1.9636 -14.016526,-9.04345 -16.840992,-15.609103 -3.271303,-7.604348 -2.577587,-18.768176 1.58458,-25.500323 5.754444,-9.307596 17.426333,-15.248125 27.242796,-13.865506 4.930402,0.694432 14.200962,4.690196 16.049562,6.917625 0.80452,0.969389 0.79943,2.199747 -0.0188,4.547024 l -1.12181,3.218028 -2.627775,-2.455831 C 87.448665,58.769248 69.042108,62.849027 63.408146,77.601344 56.752981,95.027646 73.133306,112.43436 90.697374,106.60052 97.442192,104.36025 105,96.355581 105,91.452242 c 0,-1.297002 -0.68288,-1.579016 -3,-1.238934 -1.65,0.242168 -3,0.32598 -3,0.186247 0,-0.612288 8.75648,-19.48937 9.28624,-20.01913 C 108.79142,69.875247 118,87.033545 118,88.480018 118,88.766008 116.66734,89 115.03854,89 c -2.57809,0 -3.0927,0.487428 -3.97536,3.765376 -1.63967,6.089265 -6.65351,13.018864 -11.765183,16.260594 -8.114215,5.14588 -15.461133,6.16994 -24.437743,3.40627 z"
       id="path1" />
  </g>
</svg>
