<?xml version="1.0" encoding="UTF-8" standalone="no"?>
<!-- Created with Inkscape (http://www.inkscape.org/) -->

<svg
   version="1.1"
   id="svg1"
   width="128"
   height="128"
   viewBox="0 0 128 128"
   xmlns="http://www.w3.org/2000/svg"
   xmlns:svg="http://www.w3.org/2000/svg">
  <defs
     id="defs1" />
  <g
     id="g1">
    <g
       id="g2">
      <path
         style="fill-opacity:0;fill:none;stroke:none"
         d="m 31.8125,99.316886 c 0.721875,-0.288871 1.584375,-0.253344 1.916667,0.07895 0.332291,0.332292 -0.258334,0.568641 -1.3125,0.52522 -1.164943,-0.04798 -1.4019,-0.284941 -0.604167,-0.604167 z m 5,0 c 0.721875,-0.288871 1.584375,-0.253344 1.916667,0.07895 0.332291,0.332292 -0.258334,0.568641 -1.3125,0.52522 -1.164943,-0.04798 -1.4019,-0.284941 -0.604167,-0.604167 z m 59,0 c 0.721875,-0.288871 1.584375,-0.253344 1.916667,0.07895 0.332291,0.332292 -0.258334,0.568641 -1.3125,0.52522 -1.164943,-0.04798 -1.4019,-0.284941 -0.604167,-0.604167 z M 99.272364,95 c 0,-2.475 0.195016,-3.4875 0.433369,-2.25 0.238353,1.2375 0.238353,3.2625 0,4.5 C 99.46738,98.4875 99.272364,97.475 99.272364,95 Z M 59,96.622445 c 0,-0.207656 0.7875,-0.995156 1.75,-1.75 C 62.336056,93.628574 62.371426,93.663944 61.127555,95.25 59.821186,96.915748 59,97.445479 59,96.622445 Z M 67.872445,95.25 C 66.628574,93.663944 66.663944,93.628574 68.25,94.872445 c 0.9625,0.754844 1.75,1.542344 1.75,1.75 0,0.823034 -0.821186,0.293303 -2.127555,-1.372445 z m 8,-25 C 74.628574,68.663944 74.663944,68.628574 76.25,69.872445 c 0.9625,0.754844 1.75,1.542344 1.75,1.75 0,0.823034 -0.821186,0.293303 -2.127555,-1.372445 z M 32,69.622445 c 0,-0.207656 0.7875,-0.995156 1.75,-1.75 C 35.336056,66.628574 35.371426,66.663944 34.127555,68.25 32.821186,69.915748 32,70.445479 32,69.622445 Z M 32.872445,60.25 C 31.628574,58.663944 31.663944,58.628574 33.25,59.872445 34.915748,61.178814 35.445479,62 34.622445,62 c -0.207656,0 -0.995156,-0.7875 -1.75,-1.75 z M 94,61.622445 c 0,-0.207656 0.7875,-0.995156 1.75,-1.75 C 97.336056,58.628574 97.371426,58.663944 96.127555,60.25 94.821186,61.915748 94,62.445479 94,61.622445 Z M 63.603006,44.166667 C 63.31974,43.708333 63.723388,43.333333 64.5,43.333333 c 0.776612,0 1.18026,0.375 0.896994,0.833334 C 65.113729,44.625 64.710081,45 64.5,45 64.289919,45 63.886271,44.625 63.603006,44.166667 Z m -34.524059,-6.75 c 0.04798,-1.164943 0.284941,-1.4019 0.604167,-0.604167 0.288871,0.721875 0.253344,1.584375 -0.07895,1.916667 -0.332292,0.332291 -0.568641,-0.258334 -0.52522,-1.3125 z m 70.08109,-3.109169 C 99.000642,30.131821 98.982944,30.113459 94.75,29.732205 l -4.25,-0.382791 4.281385,-0.174707 c 4.816299,-0.196535 5.591935,0.740678 4.949111,5.980097 -0.375282,3.058784 -0.424124,2.986239 -0.570459,-0.847306 z M 67,34.622445 c 0,-0.207656 0.7875,-0.995156 1.75,-1.75 C 70.336056,31.628574 70.371426,31.663944 69.127555,33.25 67.821186,34.915748 67,35.445479 67,34.622445 Z M 31.75,29.294267 c 1.2375,-0.238353 3.2625,-0.238353 4.5,0 1.2375,0.238353 0.225,0.433369 -2.25,0.433369 -2.475,0 -3.4875,-0.195016 -2.25,-0.433369 z"
         id="path8" />
      <path
         style="fill-opacity:1;fill:none;stroke:none"
         d="m 92.8125,99.316886 c 0.721875,-0.288871 1.584375,-0.253344 1.916667,0.07895 0.332291,0.332292 -0.258334,0.568641 -1.3125,0.52522 -1.164943,-0.04798 -1.4019,-0.284941 -0.604167,-0.604167 z M 29.157895,94 c 0,-1.375 0.226973,-1.9375 0.504386,-1.25 0.277412,0.6875 0.277412,1.8125 0,2.5 -0.277413,0.6875 -0.504386,0.125 -0.504386,-1.25 z m 0,-60 c 0,-1.375 0.226973,-1.9375 0.504386,-1.25 0.277412,0.6875 0.277412,1.8125 0,2.5 -0.277413,0.6875 -0.504386,0.125 -0.504386,-1.25 z"
         id="path7" />
      <path
         style="fill-opacity:1;fill:none;stroke:none"
         d="m 29.75,105.33772 c 0.6875,-0.27741 1.8125,-0.27741 2.5,0 0.6875,0.27741 0.125,0.50439 -1.25,0.50439 -1.375,0 -1.9375,-0.22698 -1.25,-0.50439 z m 67,0 c 0.6875,-0.27741 1.8125,-0.27741 2.5,0 0.6875,0.27741 0.125,0.50439 -1.25,0.50439 -1.375,0 -1.9375,-0.22698 -1.25,-0.50439 z M 23.157895,98 c 0,-1.375 0.226973,-1.9375 0.504386,-1.25 0.277412,0.6875 0.277412,1.8125 0,2.5 -0.277413,0.6875 -0.504386,0.125 -0.504386,-1.25 z m 0,-67 c 0,-1.375 0.226973,-1.9375 0.504386,-1.25 0.277412,0.6875 0.277412,1.8125 0,2.5 -0.277413,0.6875 -0.504386,0.125 -0.504386,-1.25 z"
         id="path6" />
      <path
         style="fill-opacity:1;fill:none;stroke:none"
         d="m 25.75,105.33772 c 0.6875,-0.27741 1.8125,-0.27741 2.5,0 0.6875,0.27741 0.125,0.50439 -1.25,0.50439 -1.375,0 -1.9375,-0.22698 -1.25,-0.50439 z m 8.0625,-0.0208 c 0.721875,-0.28887 1.584375,-0.25335 1.916667,0.0789 0.332291,0.3323 -0.258334,0.56864 -1.3125,0.52522 -1.164943,-0.048 -1.4019,-0.28494 -0.604167,-0.60416 z m 60,0 c 0.721875,-0.28887 1.584375,-0.25335 1.916667,0.0789 0.332291,0.3323 -0.258334,0.56864 -1.3125,0.52522 -1.164943,-0.048 -1.4019,-0.28494 -0.604167,-0.60416 z m 6.9375,0.0208 c 0.6875,-0.27741 1.8125,-0.27741 2.5,0 0.6875,0.27741 0.125,0.50439 -1.25,0.50439 -1.375,0 -1.9375,-0.22698 -1.25,-0.50439 z M 23.157895,102 c 0,-1.375 0.226973,-1.9375 0.504386,-1.25 0.277412,0.6875 0.277412,1.8125 0,2.5 -0.277413,0.6875 -0.504386,0.125 -0.504386,-1.25 z m 82.141765,-4 c 0,-3.025 0.18747,-4.2625 0.41659,-2.75 0.22913,1.5125 0.22913,3.9875 0,5.5 -0.22912,1.5125 -0.41659,0.275 -0.41659,-2.75 z M 23.078947,94.416667 c 0.04798,-1.164943 0.284941,-1.4019 0.604167,-0.604167 0.288871,0.721875 0.253344,1.584375 -0.07895,1.916667 -0.332292,0.332291 -0.568641,-0.258334 -0.52522,-1.3125 z M 59.5,89 c 0.995486,-1.1 2.034975,-2 2.309975,-2 0.275,0 -0.314489,0.9 -1.309975,2 -0.995486,1.1 -2.034975,2 -2.309975,2 -0.275,0 0.314489,-0.9 1.309975,-2 z M 67.924314,88.25 65.5,85.5 l 2.75,2.424314 c 1.5125,1.333373 2.75,2.570873 2.75,2.75 0,0.784274 -0.809799,0.145975 -3.075686,-2.424314 z M 48.458881,79.933469 C 47.432818,78.273264 48.353769,78.043045 49.789427,79.600859 50.498611,80.370387 50.637669,81 50.098444,81 49.559218,81 48.821415,80.520061 48.458881,79.933469 Z M 78,80.606989 c 0,-0.216156 0.698372,-0.661002 1.551938,-0.988546 0.889925,-0.341496 1.291322,-0.173849 0.940983,0.393011 C 79.905663,80.961658 78,81.416902 78,80.606989 Z M 22.5,69 c 0.995486,-1.1 2.034975,-2 2.309975,-2 0.275,0 -0.314489,0.9 -1.309975,2 -0.995486,1.1 -2.034975,2 -2.309975,2 -0.275,0 0.314489,-0.9 1.309975,-2 z m 17,0 c 0.995486,-1.1 2.034975,-2 2.309975,-2 0.275,0 -0.314489,0.9 -1.309975,2 -0.995486,1.1 -2.034975,2 -2.309975,2 -0.275,0 0.314489,-0.9 1.309975,-2 z M 88.404988,68.75 86.5,66.5 88.75,68.404988 C 90.864445,70.195206 91.455241,71 90.654988,71 c -0.189757,0 -1.202257,-1.0125 -2.25,-2.25 z m 17.467452,0.5 c -1.24387,-1.586056 -1.2085,-1.621426 0.37756,-0.377555 0.9625,0.754844 1.75,1.542344 1.75,1.75 0,0.823034 -0.82119,0.293303 -2.12756,-1.372445 z M 39.924314,60.25 37.5,57.5 l 2.75,2.424314 c 1.5125,1.333373 2.75,2.570873 2.75,2.75 0,0.784274 -0.809799,0.145975 -3.075686,-2.424314 z M 88.5,60 c 0.995486,-1.1 2.034975,-2 2.309975,-2 0.275,0 -0.314489,0.9 -1.309975,2 -0.995486,1.1 -2.034975,2 -2.309975,2 -0.275,0 0.314489,-0.9 1.309975,-2 z M 48,50.098444 c 0,-1.038441 1.902213,-2.541728 2.465672,-1.94858 0.182935,0.192575 -0.297004,0.930378 -1.066531,1.639563 C 48.629613,50.498611 48,50.637669 48,50.098444 Z M 79,49 C 78.098708,48.41754 77.975367,48.024514 78.690983,48.015313 79.346024,48.006891 80.160081,48.45 80.5,49 c 0.767305,1.241525 0.421123,1.241525 -1.5,0 z M 59.404988,39.75 57.5,37.5 59.75,39.404988 C 61.864445,41.195206 62.455241,42 61.654988,42 c -0.189757,0 -1.202257,-1.0125 -2.25,-2.25 z M 68.5,40 c 0.995486,-1.1 2.034975,-2 2.309975,-2 0.275,0 -0.314489,0.9 -1.309975,2 -0.995486,1.1 -2.034975,2 -2.309975,2 -0.275,0 0.314489,-0.9 1.309975,-2 z M 23.078947,34.416667 c 0.04798,-1.164943 0.284941,-1.4019 0.604167,-0.604167 0.288871,0.721875 0.253344,1.584375 -0.07895,1.916667 -0.332292,0.332291 -0.568641,-0.258334 -0.52522,-1.3125 z M 105.29966,31 c 0,-3.025 0.18747,-4.2625 0.41659,-2.75 0.22913,1.5125 0.22913,3.9875 0,5.5 -0.22912,1.5125 -0.41659,0.275 -0.41659,-2.75 z M 23.078947,27.416667 c 0.04798,-1.164943 0.284941,-1.4019 0.604167,-0.604167 0.288871,0.721875 0.253344,1.584375 -0.07895,1.916667 -0.332292,0.332291 -0.568641,-0.258334 -0.52522,-1.3125 z M 68.5,23 c 0.995486,-1.1 2.034975,-2 2.309975,-2 0.275,0 -0.314489,0.9 -1.309975,2 -0.995486,1.1 -2.034975,2 -2.309975,2 -0.275,0 0.314489,-0.9 1.309975,-2 z m -39.75,0.294267 c 1.2375,-0.238353 3.2625,-0.238353 4.5,0 1.2375,0.238353 0.225,0.433369 -2.25,0.433369 -2.475,0 -3.4875,-0.195016 -2.25,-0.433369 z M 58.872445,22.25 C 57.628574,20.663944 57.663944,20.628574 59.25,21.872445 60.915748,23.178814 61.445479,24 60.622445,24 c -0.207656,0 -0.995156,-0.7875 -1.75,-1.75 z M 95.75,23.294267 c 1.2375,-0.238353 3.2625,-0.238353 4.5,0 1.2375,0.238353 0.225,0.433369 -2.25,0.433369 -2.475,0 -3.4875,-0.195016 -2.25,-0.433369 z"
         id="path5" />
      <path
         style="fill-opacity:1;fill:none;stroke:none"
         d="m 68.872445,106.25 c -1.243871,-1.58606 -1.208501,-1.62143 0.377555,-0.37756 0.9625,0.75485 1.75,1.54235 1.75,1.75 0,0.82304 -0.821186,0.29331 -2.127555,-1.37244 z m 35.691845,-1.54313 c 0.37553,-0.98622 0.93469,-1.54122 1.24258,-1.23333 0.30789,0.30789 6.4e-4,1.11479 -0.68278,1.79313 -0.98762,0.98026 -1.10248,0.8654 -0.5598,-0.5598 z M 21.872445,59.25 C 20.628574,57.663944 20.663944,57.628574 22.25,58.872445 c 0.9625,0.754844 1.75,1.542344 1.75,1.75 0,0.823034 -0.821186,0.293303 -2.127555,-1.372445 z M 23.256735,25 c 0.224949,-0.825 1.271708,-1.604565 2.326131,-1.732366 C 26.92991,23.104366 27.053951,23.223296 26,23.667578 25.175,24.015349 24.128241,24.794913 23.673869,25.399944 23.142515,26.107483 22.993675,25.964776 23.256735,25 Z M 105,25.239991 c 0,-0.601339 -0.7875,-1.299138 -1.75,-1.550665 -1.57771,-0.4123 -1.58352,-0.468743 -0.059,-0.573325 1.80415,-0.123764 3.40789,1.618465 2.40916,2.617197 C 105.27006,26.063272 105,25.841329 105,25.239991 Z M 35.8125,23.316886 c 0.721875,-0.288871 1.584375,-0.253344 1.916667,0.07895 0.332291,0.332292 -0.258334,0.568641 -1.3125,0.52522 -1.164943,-0.04798 -1.4019,-0.284941 -0.604167,-0.604167 z m 56,0 c 0.721875,-0.288871 1.584375,-0.253344 1.916667,0.07895 0.332291,0.332292 -0.258334,0.568641 -1.3125,0.52522 -1.164943,-0.04798 -1.4019,-0.284941 -0.604167,-0.604167 z"
         id="path4" />
      <path
         style="fill-opacity:1;fill:none;stroke:none"
         d="M 90.404988,71.75 88.5,69.5 90.75,71.404988 C 92.864445,73.195206 93.455241,74 92.654988,74 c -0.189757,0 -1.202257,-1.0125 -2.25,-2.25 z m -34,-34 L 54.5,35.5 l 2.25,1.904988 c 1.2375,1.047743 2.25,2.060243 2.25,2.25 0,0.800253 -0.804794,0.209457 -2.595012,-1.904988 z"
         id="path3" />
      <path
         style="fill-opacity:1;fill:none;stroke:none"
         d="m 15.200012,98.25 c 0.377695,-13.55163 0.753448,-16.46638 2.692045,-20.882434 2.390407,-5.44526 5.785966,-9.203447 10.465317,-11.582961 L 31.214748,64.331592 28.067212,63.02784 C 24.079999,61.376283 18.733332,55.176438 17.069298,50.274968 16.358775,48.182099 15.558971,39.48191 15.274377,30.75 L 14.761047,15 27.331302,15 c 13.460314,0 20.995359,1.147249 26.792907,4.079358 3.984658,2.015239 8.350216,6.689342 9.432425,10.099081 0.670542,2.11269 0.747133,2.086658 2.190696,-0.744605 C 70.860174,18.40601 79.662373,15.030758 100.75,15.011869 L 114,15 v 12.450779 c 0,13.347431 -1.15317,20.887589 -4.07936,26.67343 -2.01524,3.984658 -6.68934,8.350216 -10.099079,9.432425 -2.11269,0.670542 -2.086658,0.747133 0.744609,2.190696 C 110.64418,70.885763 114,79.859052 114,101.6687 l 0,12.57025 -15.75,-0.51333 C 89.51809,113.44103 80.817901,112.64122 78.725032,111.9307 73.823562,110.26667 67.623717,104.92 65.97216,100.93279 l -1.303752,-3.147538 -1.4558,2.857378 C 58.121087,110.63602 49.08458,114 27.331302,114 H 14.761047 Z m 27.334604,6.65897 c 7.504368,-1.38726 12.899018,-4.08934 18.011426,-9.021587 l 4.046042,-3.90346 3.453958,3.597331 C 74.808905,102.62484 86.63269,106.46924 99.5,105.80823 l 6,-0.30823 0.30823,-6 C 106.46924,86.63269 102.62484,74.808905 95.581254,68.046042 l -3.597331,-3.453958 3.90346,-4.046042 C 103.03157,53.140898 106.46994,42.38095 105.80823,29.5 l -0.30823,-6 -6,-0.308229 C 86.61905,22.530059 75.859102,25.968428 68.453958,33.112617 l -4.046042,3.90346 -3.453958,-3.597331 C 54.191095,26.375158 42.36731,22.530759 29.5,23.191771 l -6,0.308229 -0.308229,6 c -0.661712,12.88095 2.776657,23.640898 9.920846,31.046042 l 3.90346,4.046042 -3.597331,3.453958 c -4.634202,4.449504 -7.959461,11.017778 -9.329282,18.427826 -1.207429,6.531583 -1.460535,17.821732 -0.422797,18.859462 1.038309,1.03831 12.329362,0.78436 18.867949,-0.42436 z M 30.286899,92.117866 c 0.749031,-8.934437 3.859669,-15.981394 9.98591,-22.622455 L 44.880971,64.5 41.095849,60.5 C 39.014031,58.3 36.34947,55.09269 35.1746,53.372645 32.540588,49.51637 30,40.076052 30,34.144864 v -4.434938 l 6.968236,0.584192 c 8.745513,0.733192 14.673075,3.33094 21.913834,9.603718 l 5.680574,4.921165 4.968678,-4.546728 C 76.190183,34.178897 82.91213,31.208011 91.938264,30.36912 l 7.378355,-0.685746 -0.616361,7.351954 c -0.747014,8.910369 -4.698435,17.622413 -10.602817,23.376955 l -4.014153,3.912284 4.970021,5.736968 c 6.349252,7.329036 8.918162,13.210179 9.665845,22.128538 l 0.597464,7.126545 -7.35195,-0.616361 C 83.047643,97.952686 74.341529,94.001061 68.574096,88.083493 l -3.925904,-4.028102 -4.856031,4.542248 c -6.491756,6.072278 -13.947119,9.364044 -22.910027,10.115462 l -7.198752,0.603517 z M 55.033925,79.369749 c 3.046532,-1.21898 4.765086,-2.839601 6.812247,-6.424045 l 2.73785,-4.793795 2.327468,4.387321 c 2.670452,5.033851 5.276495,7.030208 10.442311,7.999321 3.13801,0.588694 3.643138,0.424614 3.624237,-1.17726 -0.01208,-1.02371 -0.861044,-3.708943 -1.886589,-5.967183 -1.415669,-3.117291 -2.992632,-4.651951 -6.549496,-6.373799 l -4.684869,-2.267906 4.941207,-2.82204 c 3.731874,-2.131362 5.340203,-3.819228 6.571458,-6.896438 2.996677,-7.489434 1.692729,-8.607845 -5.975641,-5.125374 -3.100423,1.408009 -4.652797,2.99438 -6.339207,6.478038 C 65.826579,58.923965 64.676873,61 64.5,61 c -0.176873,0 -1.326579,-2.076035 -2.554901,-4.613411 -1.68641,-3.483658 -3.238784,-5.070029 -6.339207,-6.478038 -2.25824,-1.025545 -4.943473,-1.87451 -5.967183,-1.886589 -1.601874,-0.0189 -1.765954,0.486227 -1.17726,3.624237 0.969113,5.165816 2.96547,7.771859 7.999321,10.442311 l 4.387321,2.327468 -4.793795,2.73785 c -3.584444,2.047161 -5.205065,3.765715 -6.424045,6.812247 -2.965391,7.411242 -2.007568,8.369065 5.403674,5.403674 z"
         id="path2" />
    </g>
  </g>
</svg>
